<?xml version="1.0"?>
<svg version="1.1" xmlns="http://www.w3.org/2000/svg" width="210" height="108" style=""><path fill="#0db86e" d="M62.43,63.9l-2.25-7.74s-4.23-1.44-10.17-1.44c-9.63,0-15.03,7.02-15.03,22.05c0,14.58,5.67,20.88,15.3,20.88c4.68,0,9.9-1.62,9.9-1.62l0-11.34l-6.75-2.07l0-7.38l25.92-0.45l0,7.83l-6.12,2.07l0,18.36s-9.27,6.03-24.48,6.03c-18.27,0-28.8-10.98-28.8-31.86c0-21.15,11.88-33.75,30.33-33.75c10.89,0,20.97,4.23,20.97,4.23l-0.45,16.2l-8.37,0z M89.2059,52.65l0-7.65l27.9-0.45l0,8.1l-6.66,2.61l8.28,25.83l2.88,11.07l2.88-10.62l8.91-26.19l-6.84-2.7l0-7.65l26.91-0.45l0,8.1l-6.57,2.7l-18.99,52.65l-14.4,0l-18.18-52.83z M163.7718,108l0-7.65l6.75-2.7l0-42.3l-6.75-2.7l0-7.65l27.45-0.45l0,8.1l-6.75,2.7l0,42.3l6.75,2.7l0,7.65l-27.45,0z"/><path fill="#" d=""/></svg>
